<?xml version="1.0" encoding="UTF-8"?>
<!--Generator: Apple Native CoreSVG 175.5-->
<!DOCTYPE svg
PUBLIC "-//W3C//DTD SVG 1.1//EN"
       "http://www.w3.org/Graphics/SVG/1.1/DTD/svg11.dtd">
<svg version="1.1" xmlns="http://www.w3.org/2000/svg" xmlns:xlink="http://www.w3.org/1999/xlink" width="3300" height="2200">
 <!--glyph: "uni100EE8.medium", point size: 100.0, font version: "18.0d12e2", template writer version: "101"-->
 <g id="Notes">
  <rect height="2200" id="artboard" style="fill:white;opacity:1" width="3300" x="0" y="0"/>
  <line style="fill:none;stroke:black;opacity:1;stroke-width:0.5;" x1="263" x2="3036" y1="292" y2="292"/>
  <text style="stroke:none;fill:black;font-family:sans-serif;font-size:13;font-weight:bold;" transform="matrix(1 0 0 1 263 322)">Weight/Scale Variations</text>
  <text style="stroke:none;fill:black;font-family:sans-serif;font-size:13;text-anchor:middle;" transform="matrix(1 0 0 1 559.711 322)">Ultralight</text>
  <text style="stroke:none;fill:black;font-family:sans-serif;font-size:13;text-anchor:middle;" transform="matrix(1 0 0 1 856.422 322)">Thin</text>
  <text style="stroke:none;fill:black;font-family:sans-serif;font-size:13;text-anchor:middle;" transform="matrix(1 0 0 1 1153.13 322)">Light</text>
  <text style="stroke:none;fill:black;font-family:sans-serif;font-size:13;text-anchor:middle;" transform="matrix(1 0 0 1 1449.84 322)">Regular</text>
  <text style="stroke:none;fill:black;font-family:sans-serif;font-size:13;text-anchor:middle;" transform="matrix(1 0 0 1 1746.56 322)">Medium</text>
  <text style="stroke:none;fill:black;font-family:sans-serif;font-size:13;text-anchor:middle;" transform="matrix(1 0 0 1 2043.27 322)">Semibold</text>
  <text style="stroke:none;fill:black;font-family:sans-serif;font-size:13;text-anchor:middle;" transform="matrix(1 0 0 1 2339.98 322)">Bold</text>
  <text style="stroke:none;fill:black;font-family:sans-serif;font-size:13;text-anchor:middle;" transform="matrix(1 0 0 1 2636.69 322)">Heavy</text>
  <text style="stroke:none;fill:black;font-family:sans-serif;font-size:13;text-anchor:middle;" transform="matrix(1 0 0 1 2933.4 322)">Black</text>
  <line style="fill:none;stroke:black;opacity:1;stroke-width:0.5;" x1="263" x2="3036" y1="1903" y2="1903"/>
  <g transform="matrix(1 0 0 1 263 1933)">
   <path d="M9.24805 0.830078C13.5547 0.830078 17.1387-2.74414 17.1387-7.05078C17.1387-11.3574 13.5449-14.9316 9.23828-14.9316C4.94141-14.9316 1.36719-11.3574 1.36719-7.05078C1.36719-2.74414 4.95117 0.830078 9.24805 0.830078ZM9.24805-0.654297C5.70312-0.654297 2.87109-3.49609 2.87109-7.05078C2.87109-10.6055 5.69336-13.4473 9.23828-13.4473C12.793-13.4473 15.6445-10.6055 15.6445-7.05078C15.6445-3.49609 12.8027-0.654297 9.24805-0.654297ZM5.6543-7.05078C5.6543-6.62109 5.95703-6.32812 6.40625-6.32812L8.50586-6.32812L8.50586-4.20898C8.50586-3.76953 8.79883-3.4668 9.22852-3.4668C9.67773-3.4668 9.9707-3.76953 9.9707-4.20898L9.9707-6.32812L12.0898-6.32812C12.5293-6.32812 12.832-6.62109 12.832-7.05078C12.832-7.49023 12.5293-7.79297 12.0898-7.79297L9.9707-7.79297L9.9707-9.90234C9.9707-10.3516 9.67773-10.6543 9.22852-10.6543C8.79883-10.6543 8.50586-10.3516 8.50586-9.90234L8.50586-7.79297L6.40625-7.79297C5.95703-7.79297 5.6543-7.49023 5.6543-7.05078Z"/>
  </g>
  <g transform="matrix(1 0 0 1 281.867 1933)">
   <path d="M11.709 2.91016C17.1582 2.91016 21.6699-1.61133 21.6699-7.05078C21.6699-12.5 17.1484-17.0117 11.6992-17.0117C6.25977-17.0117 1.74805-12.5 1.74805-7.05078C1.74805-1.61133 6.26953 2.91016 11.709 2.91016ZM11.709 1.25C7.09961 1.25 3.41797-2.44141 3.41797-7.05078C3.41797-11.6602 7.08984-15.3516 11.6992-15.3516C16.3086-15.3516 20.0098-11.6602 20.0098-7.05078C20.0098-2.44141 16.3184 1.25 11.709 1.25ZM7.17773-7.05078C7.17773-6.57227 7.50977-6.25 8.00781-6.25L10.8789-6.25L10.8789-3.36914C10.8789-2.88086 11.2109-2.53906 11.6895-2.53906C12.1777-2.53906 12.5195-2.87109 12.5195-3.36914L12.5195-6.25L15.4004-6.25C15.8887-6.25 16.2305-6.57227 16.2305-7.05078C16.2305-7.53906 15.8887-7.88086 15.4004-7.88086L12.5195-7.88086L12.5195-10.752C12.5195-11.25 12.1777-11.5918 11.6895-11.5918C11.2109-11.5918 10.8789-11.25 10.8789-10.752L10.8789-7.88086L8.00781-7.88086C7.50977-7.88086 7.17773-7.53906 7.17773-7.05078Z"/>
  </g>
  <g transform="matrix(1 0 0 1 305.646 1933)">
   <path d="M14.9707 5.66406C21.9336 5.66406 27.6953-0.0976562 27.6953-7.05078C27.6953-14.0137 21.9238-19.7754 14.9609-19.7754C8.00781-19.7754 2.25586-14.0137 2.25586-7.05078C2.25586-0.0976562 8.01758 5.66406 14.9707 5.66406ZM14.9707 3.84766C8.93555 3.84766 4.08203-1.01562 4.08203-7.05078C4.08203-13.0957 8.92578-17.9492 14.9609-17.9492C21.0059-17.9492 25.8691-13.0957 25.8691-7.05078C25.8691-1.01562 21.0156 3.84766 14.9707 3.84766ZM9.19922-7.05078C9.19922-6.5332 9.57031-6.17188 10.1172-6.17188L14.0625-6.17188L14.0625-2.2168C14.0625-1.67969 14.4336-1.29883 14.9512-1.29883C15.4883-1.29883 15.8594-1.66992 15.8594-2.2168L15.8594-6.17188L19.8145-6.17188C20.3516-6.17188 20.7324-6.5332 20.7324-7.05078C20.7324-7.59766 20.3613-7.96875 19.8145-7.96875L15.8594-7.96875L15.8594-11.9141C15.8594-12.4609 15.4883-12.8418 14.9512-12.8418C14.4336-12.8418 14.0625-12.4609 14.0625-11.9141L14.0625-7.96875L10.1172-7.96875C9.57031-7.96875 9.19922-7.59766 9.19922-7.05078Z"/>
  </g>
  <text style="stroke:none;fill:black;font-family:sans-serif;font-size:13;font-weight:bold;" transform="matrix(1 0 0 1 263 1953)">Design Variations</text>
  <text style="stroke:none;fill:black;font-family:sans-serif;font-size:13;" transform="matrix(1 0 0 1 263 1971)">Symbols are supported in up to nine weights and three scales.</text>
  <text style="stroke:none;fill:black;font-family:sans-serif;font-size:13;" transform="matrix(1 0 0 1 263 1989)">For optimal layout with text and other symbols, vertically align</text>
  <text style="stroke:none;fill:black;font-family:sans-serif;font-size:13;" transform="matrix(1 0 0 1 263 2007)">symbols with the adjacent text.</text>
  <line style="fill:none;stroke:#00AEEF;stroke-width:0.5;opacity:1.0;" x1="776" x2="776" y1="1919" y2="1933"/>
  <g transform="matrix(1 0 0 1 776 1933)">
   <path d="M3.31055 0.15625C3.82812 0.15625 4.08203-0.0390625 4.26758-0.585938L5.52734-4.0332L11.2891-4.0332L12.5488-0.585938C12.7344-0.0390625 12.9883 0.15625 13.4961 0.15625C14.0137 0.15625 14.3457-0.15625 14.3457-0.644531C14.3457-0.810547 14.3164-0.966797 14.2383-1.17188L9.6582-13.3691C9.43359-13.9648 9.0332-14.2676 8.4082-14.2676C7.80273-14.2676 7.39258-13.9746 7.17773-13.3789L2.59766-1.16211C2.51953-0.957031 2.49023-0.800781 2.49023-0.634766C2.49023-0.146484 2.80273 0.15625 3.31055 0.15625ZM6.00586-5.51758L8.37891-12.0898L8.42773-12.0898L10.8008-5.51758Z"/>
  </g>
  <line style="fill:none;stroke:#00AEEF;stroke-width:0.5;opacity:1.0;" x1="793.197" x2="793.197" y1="1919" y2="1933"/>
  <text style="stroke:none;fill:black;font-family:sans-serif;font-size:13;font-weight:bold;" transform="matrix(1 0 0 1 776 1953)">Margins</text>
  <text style="stroke:none;fill:black;font-family:sans-serif;font-size:13;" transform="matrix(1 0 0 1 776 1971)">Leading and trailing margins on the left and right side of each symbol</text>
  <text style="stroke:none;fill:black;font-family:sans-serif;font-size:13;" transform="matrix(1 0 0 1 776 1989)">can be adjusted by modifying the x-location of the margin guidelines.</text>
  <text style="stroke:none;fill:black;font-family:sans-serif;font-size:13;" transform="matrix(1 0 0 1 776 2007)">Modifications are automatically applied proportionally to all</text>
  <text style="stroke:none;fill:black;font-family:sans-serif;font-size:13;" transform="matrix(1 0 0 1 776 2025)">scales and weights.</text>
  <g transform="matrix(1 0 0 1 1289 1933)">
   <path d="M2.8418 1.86523L4.54102 3.57422C5.40039 4.44336 6.38672 4.38477 7.31445 3.35938L18.0078-8.42773L17.041-9.4043L6.42578 2.27539C6.07422 2.67578 5.74219 2.77344 5.27344 2.30469L4.10156 1.14258C3.63281 0.683594 3.74023 0.341797 4.14062-0.0195312L15.6152-10.8203L14.6387-11.7871L3.04688-0.898438C2.06055 0.0195312 1.98242 0.996094 2.8418 1.86523ZM9.25781-16.3281C8.83789-15.918 8.80859-15.3418 9.04297-14.9512C9.27734-14.5898 9.73633-14.3555 10.3809-14.5215C11.8457-14.8633 13.3691-14.9219 14.7949-13.9844L14.209-12.5293C13.8672-11.6992 14.043-11.1133 14.5801-10.5664L16.875-8.25195C17.3633-7.76367 17.7734-7.74414 18.3398-7.8418L19.4043-8.03711L20.0684-7.36328L20.0293-6.80664C19.9902-6.30859 20.1172-5.92773 20.6055-5.44922L21.3672-4.70703C21.8457-4.22852 22.4609-4.19922 22.9297-4.66797L25.8398-7.58789C26.3086-8.05664 26.2891-8.65234 25.8105-9.13086L25.0391-9.89258C24.5605-10.3711 24.1895-10.5273 23.7109-10.4883L23.1348-10.4395L22.4902-11.0742L22.7344-12.1973C22.8613-12.7637 22.7051-13.2031 22.1191-13.7891L19.9219-15.9766C16.582-19.2969 12.1484-19.2188 9.25781-16.3281ZM10.752-15.957C13.1836-17.7344 16.4746-17.4316 18.7012-15.2051L21.1328-12.793C21.3672-12.5586 21.4062-12.373 21.3379-12.0312L21.0156-10.5469L22.5195-9.0625L23.5059-9.12109C23.7598-9.13086 23.8379-9.11133 24.0332-8.91602L24.6094-8.33984L22.168-5.89844L21.5918-6.47461C21.3965-6.66992 21.3672-6.74805 21.377-7.01172L21.4453-7.98828L19.9512-9.47266L18.4277-9.21875C18.1055-9.15039 17.959-9.17969 17.7148-9.41406L15.7129-11.416C15.459-11.6504 15.4297-11.8164 15.5859-12.1875L16.4648-14.2773C14.9023-15.7324 12.8711-16.3574 10.8398-15.7617C10.6836-15.7227 10.625-15.8496 10.752-15.957Z"/>
  </g>
  <text style="stroke:none;fill:black;font-family:sans-serif;font-size:13;font-weight:bold;" transform="matrix(1 0 0 1 1289 1953)">Exporting</text>
  <text style="stroke:none;fill:black;font-family:sans-serif;font-size:13;" transform="matrix(1 0 0 1 1289 1971)">Symbols should be outlined when exporting to ensure the</text>
  <text style="stroke:none;fill:black;font-family:sans-serif;font-size:13;" transform="matrix(1 0 0 1 1289 1989)">design is preserved when submitting to Xcode.</text>
  <text id="template-version" style="stroke:none;fill:black;font-family:sans-serif;font-size:13;text-anchor:end;" transform="matrix(1 0 0 1 3036 1933)">Template v.4.0</text>
  <text style="stroke:none;fill:black;font-family:sans-serif;font-size:13;text-anchor:end;" transform="matrix(1 0 0 1 3036 1951)">Requires Xcode 14 or greater</text>
  <text id="descriptive-name" style="stroke:none;fill:black;font-family:sans-serif;font-size:13;text-anchor:end;" transform="matrix(1 0 0 1 3036 1969)">Generated from list.bullet.circle.fill</text>
  <text style="stroke:none;fill:black;font-family:sans-serif;font-size:13;text-anchor:end;" transform="matrix(1 0 0 1 3036 1987)">Typeset at 100 points</text>
  <text style="stroke:none;fill:black;font-family:sans-serif;font-size:13;" transform="matrix(1 0 0 1 263 726)">Small</text>
  <text style="stroke:none;fill:black;font-family:sans-serif;font-size:13;" transform="matrix(1 0 0 1 263 1156)">Medium</text>
  <text style="stroke:none;fill:black;font-family:sans-serif;font-size:13;" transform="matrix(1 0 0 1 263 1586)">Large</text>
 </g>
 <g id="Guides">
  <g id="H-reference" style="fill:#27AAE1;stroke:none;" transform="matrix(1 0 0 1 339 696)">
   <path d="M0.993654 0L3.63775 0L29.3281-67.1323L30.0303-67.1323L30.0303-70.459L28.1226-70.459ZM11.6885-24.4799L46.9815-24.4799L46.2315-26.7285L12.4385-26.7285ZM55.1196 0L57.7637 0L30.6382-70.459L29.4326-70.459L29.4326-67.1323Z"/>
  </g>
  <line id="Baseline-S" style="fill:none;stroke:#27AAE1;opacity:1;stroke-width:0.5;" x1="263" x2="3036" y1="696" y2="696"/>
  <line id="Capline-S" style="fill:none;stroke:#27AAE1;opacity:1;stroke-width:0.5;" x1="263" x2="3036" y1="625.541" y2="625.541"/>
  <g id="H-reference" style="fill:#27AAE1;stroke:none;" transform="matrix(1 0 0 1 339 1126)">
   <path d="M0.993654 0L3.63775 0L29.3281-67.1323L30.0303-67.1323L30.0303-70.459L28.1226-70.459ZM11.6885-24.4799L46.9815-24.4799L46.2315-26.7285L12.4385-26.7285ZM55.1196 0L57.7637 0L30.6382-70.459L29.4326-70.459L29.4326-67.1323Z"/>
  </g>
  <line id="Baseline-M" style="fill:none;stroke:#27AAE1;opacity:1;stroke-width:0.5;" x1="263" x2="3036" y1="1126" y2="1126"/>
  <line id="Capline-M" style="fill:none;stroke:#27AAE1;opacity:1;stroke-width:0.5;" x1="263" x2="3036" y1="1055.54" y2="1055.54"/>
  <g id="H-reference" style="fill:#27AAE1;stroke:none;" transform="matrix(1 0 0 1 339 1556)">
   <path d="M0.993654 0L3.63775 0L29.3281-67.1323L30.0303-67.1323L30.0303-70.459L28.1226-70.459ZM11.6885-24.4799L46.9815-24.4799L46.2315-26.7285L12.4385-26.7285ZM55.1196 0L57.7637 0L30.6382-70.459L29.4326-70.459L29.4326-67.1323Z"/>
  </g>
  <line id="Baseline-L" style="fill:none;stroke:#27AAE1;opacity:1;stroke-width:0.5;" x1="263" x2="3036" y1="1556" y2="1556"/>
  <line id="Capline-L" style="fill:none;stroke:#27AAE1;opacity:1;stroke-width:0.5;" x1="263" x2="3036" y1="1485.54" y2="1485.54"/>
  <line id="left-margin-Regular-M" style="fill:none;stroke:#00AEEF;stroke-width:0.5;opacity:1.0;" x1="1391.32" x2="1391.32" y1="1030.79" y2="1150.12"/>
  <line id="right-margin-Regular-M" style="fill:none;stroke:#00AEEF;stroke-width:0.5;opacity:1.0;" x1="1508.37" x2="1508.37" y1="1030.79" y2="1150.12"/>
 </g>
 <g id="Symbols">
  <g id="Black-L" transform="matrix(1 0 0 1 2854.19 1556)">
   <path d="M79.1958 32.7257C116.56 32.7257 147.154 2.15259 147.154-35.2113C147.154-72.5752 116.539-103.148 79.175-103.148C41.8307-103.148 11.2588-72.5752 11.2588-35.2113C11.2588 2.15259 41.8515 32.7257 79.1958 32.7257ZM68.1057-49.4458C65.3082-49.4458 63.0248-51.75 63.0248-54.6059C63.0248-57.463 65.2082-59.7452 68.1057-59.7452L107.772-59.7452C110.671-59.7452 112.991-57.4642 112.991-54.6059C112.991-51.728 110.671-49.4458 107.772-49.4458ZM68.1057-10.6333C65.2666-10.6333 63.0248-12.9155 63.0248-15.7726C63.0248-18.6286 65.3082-20.9328 68.1057-20.9328L107.772-20.9328C110.671-20.9328 112.991-18.6506 112.991-15.7726C112.991-12.9143 110.671-10.6333 107.772-10.6333ZM68.1057-30.05C65.3082-30.05 63.0248-32.3322 63.0248-35.1893C63.0248-38.0464 65.2498-40.3286 68.1057-40.3286L107.772-40.3286C110.671-40.3286 112.991-38.0684 112.991-35.1893C112.991-32.3101 110.671-30.05 107.772-30.05ZM51.8697-48.1119C48.3121-48.1119 45.3382-51.1067 45.3382-54.6059C45.3382-58.1636 48.3121-61.1387 51.8697-61.1387C55.369-61.1387 58.3429-58.1636 58.3429-54.6059C58.3429-51.1275 55.3482-48.1119 51.8697-48.1119ZM51.8697-28.7149C48.3121-28.7149 45.3382-31.6692 45.3382-35.1893C45.3382-38.7094 48.3121-41.6636 51.8697-41.6636C55.3482-41.6636 58.3429-38.6885 58.3429-35.1893C58.3429-31.69 55.3482-28.7149 51.8697-28.7149ZM51.8697-9.23987C48.3121-9.23987 45.3382-12.215 45.3382-15.7726C45.3382-19.2719 48.3121-22.2666 51.8697-22.2666C55.3482-22.2666 58.3429-19.2511 58.3429-15.7726C58.3429-12.215 55.369-9.23987 51.8697-9.23987Z"/>
  </g>
  <g id="Heavy-L" transform="matrix(1 0 0 1 2558.42 1556)">
   <path d="M78.2532 31.7694C115.056 31.7694 145.278 1.57794 145.278-35.2251C145.278-72.0281 115.026-102.22 78.2231-102.22C41.4446-102.22 11.2588-72.0281 11.2588-35.2251C11.2588 1.57794 41.4748 31.7694 78.2532 31.7694ZM66.019-50.283C63.4063-50.283 61.2625-52.457 61.2625-55.1143C61.2625-57.7773 63.3013-59.9155 66.019-59.9155L107.889-59.9155C110.613-59.9155 112.765-57.7829 112.765-55.1143C112.765-52.4212 110.613-50.283 107.889-50.283ZM66.019-10.4631C63.3459-10.4631 61.2625-12.6013 61.2625-15.2642C61.2625-17.9216 63.4063-20.0955 66.019-20.0955L107.889-20.0955C110.613-20.0955 112.765-17.9574 112.765-15.2642C112.765-12.5957 110.613-10.4631 107.889-10.4631ZM66.019-30.3882C63.4063-30.3882 61.2625-32.5263 61.2625-35.1893C61.2625-37.8522 63.3617-39.9904 66.019-39.9904L107.889-39.9904C110.613-39.9904 112.765-37.888 112.765-35.1893C112.765-32.4906 110.613-30.3882 107.889-30.3882ZM49.9369-48.8426C46.4972-48.8426 43.6507-51.7193 43.6507-55.1143C43.6507-58.554 46.4972-61.4061 49.9369-61.4061C53.3319-61.4061 56.1784-58.554 56.1784-55.1143C56.1784-51.7495 53.3017-48.8426 49.9369-48.8426ZM49.9369-28.9422C46.4972-28.9422 43.6507-31.7641 43.6507-35.1893C43.6507-38.6145 46.4972-41.4364 49.9369-41.4364C53.3017-41.4364 56.1784-38.5843 56.1784-35.1893C56.1784-31.7943 53.3017-28.9422 49.9369-28.9422ZM49.9369-8.97249C46.4972-8.97249 43.6507-11.8246 43.6507-15.2642C43.6507-18.6592 46.4972-21.5359 49.9369-21.5359C53.3017-21.5359 56.1784-18.6291 56.1784-15.2642C56.1784-11.8246 53.3319-8.97249 49.9369-8.97249Z"/>
  </g>
  <g id="Bold-L" transform="matrix(1 0 0 1 2262.89 1556)">
   <path d="M77.0704 30.5711C113.182 30.5711 142.92 0.870872 142.92-35.2405C142.92-71.3519 113.144-101.052 77.0324-101.052C40.9458-101.052 11.2588-71.3519 11.2588-35.2405C11.2588 0.870872 40.9838 30.5711 77.0704 30.5711ZM63.4893-51.3427C61.1368-51.3427 59.192-53.3255 59.192-55.7071C59.192-58.102 61.0317-60.0336 63.4893-60.0336L107.991-60.0336C110.461-60.0336 112.384-58.1152 112.384-55.7071C112.384-53.2743 110.461-51.3427 107.991-51.3427ZM63.4893-10.345C61.0609-10.345 59.192-12.2766 59.192-14.6714C59.192-17.053 61.1368-19.0359 63.4893-19.0359L107.991-19.0359C110.461-19.0359 112.384-17.1043 112.384-14.6714C112.384-12.2633 110.461-10.345 107.991-10.345ZM63.4893-30.8628C61.1368-30.8628 59.192-32.7944 59.192-35.1893C59.192-37.5841 61.1076-39.5157 63.4893-39.5157L107.991-39.5157C110.461-39.5157 112.384-37.6353 112.384-35.1893C112.384-32.7432 110.461-30.8628 107.991-30.8628ZM47.6141-49.7269C44.3279-49.7269 41.6427-52.4502 41.6427-55.7071C41.6427-58.9933 44.3279-61.6918 47.6141-61.6918C50.8711-61.6918 53.5563-58.9933 53.5563-55.7071C53.5563-52.4882 50.8331-49.7269 47.6141-49.7269ZM47.6141-29.2338C44.3279-29.2338 41.6427-31.8943 41.6427-35.1893C41.6427-38.4842 44.3279-41.1447 47.6141-41.1447C50.8331-41.1447 53.5563-38.4463 53.5563-35.1893C53.5563-31.9323 50.8331-29.2338 47.6141-29.2338ZM47.6141-8.68677C44.3279-8.68677 41.6427-11.3852 41.6427-14.6714C41.6427-17.9284 44.3279-20.6516 47.6141-20.6516C50.8331-20.6516 53.5563-17.8904 53.5563-14.6714C53.5563-11.3852 50.8711-8.68677 47.6141-8.68677Z"/>
  </g>
  <g id="Semibold-L" transform="matrix(1 0 0 1 1966.99 1556)">
   <path d="M76.2549 29.745C111.889 29.745 141.294 0.383422 141.294-35.2511C141.294-70.8857 111.846-100.247 76.2116-100.247C40.6019-100.247 11.2588-70.8857 11.2588-35.2511C11.2588 0.383422 40.6453 29.745 76.2549 29.745ZM61.7453-52.0732C59.5723-52.0732 57.7646-53.9243 57.7646-56.1158C57.7646-58.3259 59.467-60.115 61.7453-60.115L108.06-60.115C110.357-60.115 112.121-58.3443 112.121-56.1158C112.121-53.8624 110.357-52.0732 108.06-52.0732ZM61.7453-10.2635C59.4856-10.2635 57.7646-12.0527 57.7646-14.2627C57.7646-16.4543 59.5723-18.3053 61.7453-18.3053L108.06-18.3053C110.357-18.3053 112.121-16.5161 112.121-14.2627C112.121-12.0342 110.357-10.2635 108.06-10.2635ZM61.7453-31.1901C59.5723-31.1901 57.7646-32.9792 57.7646-35.1893C57.7646-37.3993 59.5537-39.1885 61.7453-39.1885L108.06-39.1885C110.357-39.1885 112.121-37.4612 112.121-35.1893C112.121-32.9174 110.357-31.1901 108.06-31.1901ZM46.0128-50.3366C42.8324-50.3366 40.2583-52.954 40.2583-56.1158C40.2583-59.2962 42.8324-61.8888 46.0128-61.8888C49.1746-61.8888 51.7487-59.2962 51.7487-56.1158C51.7487-52.9974 49.1312-50.3366 46.0128-50.3366ZM46.0128-29.4349C42.8324-29.4349 40.2583-31.9841 40.2583-35.1893C40.2583-38.3945 42.8324-40.9437 46.0128-40.9437C49.1312-40.9437 51.7487-38.3511 51.7487-35.1893C51.7487-32.0275 49.1312-29.4349 46.0128-29.4349ZM46.0128-8.48979C42.8324-8.48979 40.2583-11.0824 40.2583-14.2627C40.2583-17.4246 42.8324-20.042 46.0128-20.042C49.1312-20.042 51.7487-17.3812 51.7487-14.2627C51.7487-11.0824 49.1746-8.48979 46.0128-8.48979Z"/>
  </g>
  <g id="Medium-L" transform="matrix(1 0 0 1 1670.9 1556)">
   <path d="M75.6366 29.1187C110.91 29.1187 140.062 0.0138167 140.062-35.2592C140.062-70.5322 110.862-99.637 75.5892-99.637C40.3412-99.637 11.2588-70.5322 11.2588-35.2592C11.2588 0.0138167 40.3886 29.1187 75.6366 29.1187ZM60.4229-52.6272C58.386-52.6272 56.6823-54.3783 56.6823-56.4257C56.6823-58.4956 58.2806-60.1768 60.4229-60.1768L108.113-60.1768C110.278-60.1768 111.922-58.5181 111.922-56.4257C111.922-54.3084 110.278-52.6272 108.113-52.6272ZM60.4229-10.2018C58.2911-10.2018 56.6823-11.883 56.6823-13.9529C56.6823-16.0003 58.386-17.7514 60.4229-17.7514L108.113-17.7514C110.278-17.7514 111.922-16.0702 111.922-13.9529C111.922-11.8605 110.278-10.2018 108.113-10.2018ZM60.4229-31.4382C58.386-31.4382 56.6823-33.1194 56.6823-35.1893C56.6823-37.2592 58.3755-38.9404 60.4229-38.9404L108.113-38.9404C110.278-38.9404 111.922-37.3291 111.922-35.1893C111.922-33.0495 110.278-31.4382 108.113-31.4382ZM44.7986-50.7988C41.6985-50.7988 39.2087-53.336 39.2087-56.4257C39.2087-59.5259 41.6985-62.0381 44.7986-62.0381C47.8883-62.0381 50.3781-59.5259 50.3781-56.4257C50.3781-53.3835 47.8408-50.7988 44.7986-50.7988ZM44.7986-29.5874C41.6985-29.5874 39.2087-32.0522 39.2087-35.1893C39.2087-38.3264 41.6985-40.7912 44.7986-40.7912C47.8408-40.7912 50.3781-38.2789 50.3781-35.1893C50.3781-32.0996 47.8408-29.5874 44.7986-29.5874ZM44.7986-8.34044C41.6985-8.34044 39.2087-10.8527 39.2087-13.9529C39.2087-17.0425 41.6985-19.5798 44.7986-19.5798C47.8408-19.5798 50.3781-16.9951 50.3781-13.9529C50.3781-10.8527 47.8883-8.34044 44.7986-8.34044Z"/>
  </g>
  <g id="Regular-L" transform="matrix(1 0 0 1 1374.99 1556)">
   <path d="M74.8301 28.3017C109.632 28.3017 138.454-0.468277 138.454-35.2697C138.454-70.0711 109.579-98.8411 74.7774-98.8411C40.0011-98.8411 11.2588-70.0711 11.2588-35.2697C11.2588-0.468277 40.0538 28.3017 74.8301 28.3017ZM58.6981-53.3497C56.8386-53.3497 55.2706-54.9704 55.2706-56.8299C55.2706-58.717 56.7331-60.2573 58.6981-60.2573L108.182-60.2573C110.175-60.2573 111.662-58.7447 111.662-56.8299C111.662-54.89 110.175-53.3497 108.182-53.3497ZM58.6981-10.1212C56.7331-10.1212 55.2706-11.6616 55.2706-13.5487C55.2706-15.4081 56.8386-17.0289 58.6981-17.0289L108.182-17.0289C110.175-17.0289 111.662-15.4886 111.662-13.5487C111.662-11.6339 110.175-10.1212 108.182-10.1212ZM58.6981-31.7618C56.8386-31.7618 55.2706-33.3022 55.2706-35.1893C55.2706-37.0764 56.8386-38.6167 58.6981-38.6167L108.182-38.6167C110.175-38.6167 111.662-37.1568 111.662-35.1893C111.662-33.2217 110.175-31.7618 108.182-31.7618ZM43.2149-51.4017C40.2194-51.4017 37.8395-53.8343 37.8395-56.8299C37.8395-59.8254 40.2194-62.2329 43.2149-62.2329C46.2105-62.2329 48.5903-59.8254 48.5903-56.8299C48.5903-53.8871 46.1577-51.4017 43.2149-51.4017ZM43.2149-29.7862C40.2194-29.7862 37.8395-32.141 37.8395-35.1893C37.8395-38.2376 40.2194-40.5923 43.2149-40.5923C46.1577-40.5923 48.5903-38.1848 48.5903-35.1893C48.5903-32.1937 46.1577-29.7862 43.2149-29.7862ZM43.2149-8.14563C40.2194-8.14563 37.8395-10.5531 37.8395-13.5487C37.8395-16.5442 40.2194-18.9768 43.2149-18.9768C46.1577-18.9768 48.5903-16.4915 48.5903-13.5487C48.5903-10.5531 46.2105-8.14563 43.2149-8.14563Z"/>
  </g>
  <g id="Light-L" transform="matrix(1 0 0 1 1079.2 1556)">
   <path d="M73.9141 27.3856C108.257 27.3856 136.603-0.926323 136.603-35.2697C136.603-69.6131 108.224-97.925 73.8804-97.925C39.5239-97.925 11.2588-69.6131 11.2588-35.2697C11.2588-0.926323 39.5576 27.3856 73.9141 27.3856ZM57.3049-54.2276C55.8271-54.2276 54.5645-55.5239 54.5645-57.0017C54.5645-58.5262 55.7598-59.742 57.3049-59.742L107.972-59.742C109.564-59.742 110.746-58.5729 110.746-57.0017C110.746-55.4435 109.564-54.2276 107.972-54.2276ZM57.3049-10.6365C55.7598-10.6365 54.5645-11.8524 54.5645-13.3769C54.5645-14.8547 55.8271-16.151 57.3049-16.151L107.972-16.151C109.564-16.151 110.746-14.9351 110.746-13.3769C110.746-11.8057 109.564-10.6365 107.972-10.6365ZM57.3049-32.4489C55.8271-32.4489 54.5645-33.6648 54.5645-35.1893C54.5645-36.7138 55.8271-37.9297 57.3049-37.9297L107.972-37.9297C109.564-37.9297 110.746-36.7942 110.746-35.1893C110.746-33.5844 109.564-32.4489 107.972-32.4489ZM42.0698-51.8789C39.2269-51.8789 36.9807-54.1588 36.9807-57.0017C36.9807-59.8445 39.2269-62.1375 42.0698-62.1375C44.9127-62.1375 47.1589-59.8445 47.1589-57.0017C47.1589-54.1925 44.879-51.8789 42.0698-51.8789ZM42.0698-30.0534C39.2269-30.0534 36.9807-32.3127 36.9807-35.1893C36.9807-38.0658 39.2269-40.3251 42.0698-40.3251C44.879-40.3251 47.1589-38.0321 47.1589-35.1893C47.1589-32.3464 44.879-30.0534 42.0698-30.0534ZM42.0698-8.24106C39.2269-8.24106 36.9807-10.534 36.9807-13.3769C36.9807-16.2198 39.2269-18.4997 42.0698-18.4997C44.879-18.4997 47.1589-16.1861 47.1589-13.3769C47.1589-10.534 44.9127-8.24106 42.0698-8.24106Z"/>
  </g>
  <g id="Thin-L" transform="matrix(1 0 0 1 783.716 1556)">
   <path d="M72.7024 26.174C106.44 26.174 134.155-1.53213 134.155-35.2697C134.155-69.0073 106.432-96.7134 72.694-96.7134C38.8929-96.7134 11.2588-69.0073 11.2588-35.2697C11.2588-1.53213 38.9013 26.174 72.7024 26.174ZM55.4622-55.3887C54.4893-55.3887 53.6305-56.2559 53.6305-57.2288C53.6305-58.2737 54.4724-59.0605 55.4622-59.0605L107.695-59.0605C108.756-59.0605 109.535-58.3457 109.535-57.2288C109.535-56.1755 108.756-55.3887 107.695-55.3887ZM55.4622-11.318C54.4724-11.318 53.6305-12.1048 53.6305-13.1497C53.6305-14.1227 54.4893-14.9898 55.4622-14.9898L107.695-14.9898C108.756-14.9898 109.535-14.2031 109.535-13.1497C109.535-12.0328 108.756-11.318 107.695-11.318ZM55.4622-33.3576C54.4893-33.3576 53.6305-34.1444 53.6305-35.1893C53.6305-36.2342 54.4893-37.021 55.4622-37.021L107.695-37.021C108.756-37.021 109.535-36.3146 109.535-35.1893C109.535-34.064 108.756-33.3576 107.695-33.3576ZM40.5553-52.5099C37.9144-52.5099 35.8448-54.5879 35.8448-57.2288C35.8448-59.8698 37.9144-62.0113 40.5553-62.0113C43.1962-62.0113 45.2658-59.8698 45.2658-57.2288C45.2658-54.5963 43.1878-52.5099 40.5553-52.5099ZM40.5553-30.4068C37.9144-30.4068 35.8448-32.5399 35.8448-35.1893C35.8448-37.8386 37.9144-39.9717 40.5553-39.9717C43.1878-39.9717 45.2658-37.8302 45.2658-35.1893C45.2658-32.5484 43.1878-30.4068 40.5553-30.4068ZM40.5553-8.36727C37.9144-8.36727 35.8448-10.5088 35.8448-13.1497C35.8448-15.7907 37.9144-17.8686 40.5553-17.8686C43.1878-17.8686 45.2658-15.7822 45.2658-13.1497C45.2658-10.5088 43.1962-8.36727 40.5553-8.36727Z"/>
  </g>
  <g id="Ultralight-L" transform="matrix(1 0 0 1 487.631 1556)">
   <path d="M72.0819 25.5534C105.509 25.5534 132.9-1.84242 132.9-35.2697C132.9-68.697 105.514-96.0928 72.0864-96.0928C38.5697-96.0928 11.2588-68.697 11.2588-35.2697C11.2588-1.84242 38.5652 25.5534 72.0819 25.5534ZM54.5184-55.9834C53.8041-55.9834 53.1522-56.6308 53.1522-57.3452C53.1522-58.1445 53.8131-58.7114 54.5184-58.7114L107.552-58.7114C108.343-58.7114 108.914-58.2294 108.914-57.3452C108.914-56.5504 108.343-55.9834 107.552-55.9834ZM54.5184-11.6671C53.8131-11.6671 53.1522-12.2341 53.1522-13.0334C53.1522-13.7477 53.8041-14.3951 54.5184-14.3951L107.552-14.3951C108.343-14.3951 108.914-13.8281 108.914-13.0334C108.914-12.1492 108.343-11.6671 107.552-11.6671ZM54.5184-33.823C53.8041-33.823 53.1522-34.39 53.1522-35.1893C53.1522-35.9885 53.8041-36.5555 54.5184-36.5555L107.552-36.5555C108.343-36.5555 108.914-36.069 108.914-35.1893C108.914-34.3096 108.343-33.823 107.552-33.823ZM39.7796-52.8331C37.2421-52.8331 35.263-54.8077 35.263-57.3452C35.263-59.8827 37.2421-61.9467 39.7796-61.9467C42.3171-61.9467 44.2961-59.8827 44.2961-57.3452C44.2961-54.8032 42.3216-52.8331 39.7796-52.8331ZM39.7796-30.5878C37.2421-30.5878 35.263-32.6563 35.263-35.1893C35.263-37.7223 37.2421-39.7907 39.7796-39.7907C42.3216-39.7907 44.2961-37.7268 44.2961-35.1893C44.2961-32.6518 42.3216-30.5878 39.7796-30.5878ZM39.7796-8.43191C37.2421-8.43191 35.263-10.4959 35.263-13.0334C35.263-15.5709 37.2421-17.5454 39.7796-17.5454C42.3216-17.5454 44.2961-15.5754 44.2961-13.0334C44.2961-10.4959 42.3171-8.43191 39.7796-8.43191Z"/>
  </g>
  <g id="Black-M" transform="matrix(1 0 0 1 2871.36 1126)">
   <path d="M62.0422 18.116C91.4096 18.116 115.367-5.83621 115.367-35.2035C115.367-64.5709 91.4041-88.5231 62.0367-88.5231C32.6752-88.5231 8.72266-64.5709 8.72266-35.2035C8.72266-5.83621 32.6807 18.116 62.0422 18.116ZM54.369-45.6429C52.0946-45.6429 50.2469-47.496 50.2469-49.8276C50.2469-52.1589 52.0265-54.0068 54.369-54.0068L83.367-54.0068C85.7093-54.0068 87.6088-52.1586 87.6088-49.8276C87.6088-47.4908 85.7093-45.6429 83.367-45.6429ZM54.369-16.3899C52.0836-16.3899 50.2469-18.2378 50.2469-20.5691C50.2469-22.9007 52.0946-24.7538 54.369-24.7538L83.367-24.7538C85.7093-24.7538 87.6088-22.9059 87.6088-20.5691C87.6088-18.2381 85.7093-16.3899 83.367-16.3899ZM54.369-31.0191C52.0946-31.0191 50.2469-32.8671 50.2469-35.1983C50.2469-37.5296 52.0375-39.3775 54.369-39.3775L83.367-39.3775C85.7093-39.3775 87.6088-37.5348 87.6088-35.1983C87.6088-32.8618 85.7093-31.0191 83.367-31.0191ZM41.6917-44.6467C38.8546-44.6467 36.4592-47.0476 36.4592-49.8276C36.4592-52.6646 38.8546-55.0597 41.6917-55.0597C44.4716-55.0597 46.867-52.6646 46.867-49.8276C46.867-47.0531 44.4661-44.6467 41.6917-44.6467ZM41.6917-30.0233C38.8546-30.0233 36.4592-32.4129 36.4592-35.1983C36.4592-37.9838 38.8546-40.3734 41.6917-40.3734C44.4661-40.3734 46.867-37.9783 46.867-35.1983C46.867-32.4184 44.4661-30.0233 41.6917-30.0233ZM41.6917-15.337C38.8546-15.337 36.4592-17.7321 36.4592-20.5691C36.4592-23.3491 38.8546-25.7499 41.6917-25.7499C44.4661-25.7499 46.867-23.3436 46.867-20.5691C46.867-17.7321 44.4716-15.337 41.6917-15.337Z"/>
  </g>
  <g id="Heavy-M" transform="matrix(1 0 0 1 2575.48 1126)">
   <path d="M61.2053 17.2657C90.0667 17.2657 113.704-6.35571 113.704-35.217C113.704-64.0783 90.0502-87.6997 61.1889-87.6997C32.3418-87.6997 8.72266-64.0783 8.72266-35.217C8.72266-6.35571 32.3582 17.2657 61.2053 17.2657ZM52.4576-46.3803C50.3286-46.3803 48.5893-48.1361 48.5893-50.3087C48.5893-52.4836 50.2522-54.2207 52.4576-54.2207L83.5006-54.2207C85.7083-54.2207 87.4726-52.4859 87.4726-50.3087C87.4726-48.1174 85.7083-46.3803 83.5006-46.3803ZM52.4576-16.176C50.2958-16.176 48.5893-17.9131 48.5893-20.088C48.5893-22.2606 50.3286-24.0164 52.4576-24.0164L83.5006-24.0164C85.7083-24.0164 87.4726-22.2793 87.4726-20.088C87.4726-17.9108 85.7083-16.176 83.5006-16.176ZM52.4576-31.2864C50.3286-31.2864 48.5893-33.0234 48.5893-35.1983C48.5893-37.3733 50.285-39.1103 52.4576-39.1103L83.5006-39.1103C85.7083-39.1103 87.4726-37.3919 87.4726-35.1983C87.4726-33.0047 85.7083-31.2864 83.5006-31.2864ZM39.9078-45.317C37.1721-45.317 34.8889-47.6166 34.8889-50.3087C34.8889-53.0444 37.1721-55.3299 39.9078-55.3299C42.5999-55.3299 44.8831-53.0444 44.8831-50.3087C44.8831-47.633 42.5835-45.317 39.9078-45.317ZM39.9078-30.2208C37.1721-30.2208 34.8889-32.4898 34.8889-35.1983C34.8889-37.9069 37.1721-40.1759 39.9078-40.1759C42.5835-40.1759 44.8831-37.8904 44.8831-35.1983C44.8831-32.5062 42.5835-30.2208 39.9078-30.2208ZM39.9078-15.0668C37.1721-15.0668 34.8889-17.3522 34.8889-20.088C34.8889-22.7801 37.1721-25.0797 39.9078-25.0797C42.5835-25.0797 44.8831-22.7637 44.8831-20.088C44.8831-17.3522 42.5999-15.0668 39.9078-15.0668Z"/>
  </g>
  <g id="Bold-M" transform="matrix(1 0 0 1 2279.69 1126)">
   <path d="M60.2692 16.3144C88.5644 16.3144 111.844-6.93686 111.844-35.2321C111.844-63.5273 88.5358-86.7786 60.2405-86.7786C31.9688-86.7786 8.72266-63.5273 8.72266-35.2321C8.72266-6.93686 31.9974 16.3144 60.2692 16.3144ZM50.3194-47.2053C48.3531-47.2053 46.7349-48.8521 46.7349-50.847C46.7349-52.8469 48.2673-54.46 50.3194-54.46L83.65-54.46C85.7072-54.46 87.3202-52.8521 87.3202-50.847C87.3202-48.8184 85.7072-47.2053 83.65-47.2053ZM50.3194-15.9367C48.2959-15.9367 46.7349-17.5497 46.7349-19.5497C46.7349-21.5446 48.3531-23.1914 50.3194-23.1914L83.65-23.1914C85.7072-23.1914 87.3202-21.5783 87.3202-19.5497C87.3202-17.5446 85.7072-15.9367 83.65-15.9367ZM50.3194-31.5853C48.3531-31.5853 46.7349-33.1984 46.7349-35.1983C46.7349-37.1983 48.3246-38.8114 50.3194-38.8114L83.65-38.8114C85.7072-38.8114 87.3202-37.2321 87.3202-35.1983C87.3202-33.1646 85.7072-31.5853 83.65-31.5853ZM37.9123-46.0668C35.2899-46.0668 33.1323-48.2531 33.1323-50.847C33.1323-53.4694 35.2899-55.6321 37.9123-55.6321C40.5062-55.6321 42.6638-53.4694 42.6638-50.847C42.6638-48.2817 40.4775-46.0668 37.9123-46.0668ZM37.9123-30.4417C35.2899-30.4417 33.1323-32.5759 33.1323-35.1983C33.1323-37.8208 35.2899-39.955 37.9123-39.955C40.4775-39.955 42.6638-37.7922 42.6638-35.1983C42.6638-32.6045 40.4775-30.4417 37.9123-30.4417ZM37.9123-14.7645C35.2899-14.7645 33.1323-16.9273 33.1323-19.5497C33.1323-22.1436 35.2899-24.3299 37.9123-24.3299C40.4775-24.3299 42.6638-22.115 42.6638-19.5497C42.6638-16.9273 40.5062-14.7645 37.9123-14.7645Z"/>
  </g>
  <g id="Semibold-M" transform="matrix(1 0 0 1 1983.62 1126)">
   <path d="M59.6238 15.6586C87.5288 15.6586 110.562-7.33749 110.562-35.2425C110.562-63.1475 87.4917-86.1436 59.5867-86.1436C31.7117-86.1436 8.72266-63.1475 8.72266-35.2425C8.72266-7.33749 31.7487 15.6586 59.6238 15.6586ZM48.8454-47.774C46.9912-47.774 45.4565-49.3457 45.4565-51.218C45.4565-53.0974 46.899-54.625 48.8454-54.625L83.753-54.625C85.7064-54.625 87.2152-53.1045 87.2152-51.218C87.2152-49.3016 85.7064-47.774 83.753-47.774ZM48.8454-15.7717C46.9172-15.7717 45.4565-17.2993 45.4565-19.1787C45.4565-21.0509 46.9912-22.6227 48.8454-22.6227L83.753-22.6227C85.7064-22.6227 87.2152-21.0951 87.2152-19.1787C87.2152-17.2922 85.7064-15.7717 83.753-15.7717ZM48.8454-31.7914C46.9912-31.7914 45.4565-33.319 45.4565-35.1983C45.4565-37.0777 46.9731-38.6053 48.8454-38.6053L83.753-38.6053C85.7064-38.6053 87.2152-37.1219 87.2152-35.1983C87.2152-33.2748 85.7064-31.7914 83.753-31.7914ZM36.5366-46.5837C33.9923-46.5837 31.9212-48.6919 31.9212-51.218C31.9212-53.7623 33.9923-55.8405 36.5366-55.8405C39.0627-55.8405 41.1339-53.7623 41.1339-51.218C41.1339-48.7289 39.0257-46.5837 36.5366-46.5837ZM36.5366-30.594C33.9923-30.594 31.9212-32.6352 31.9212-35.1983C31.9212-37.7615 33.9923-39.8027 36.5366-39.8027C39.0257-39.8027 41.1339-37.7245 41.1339-35.1983C41.1339-32.6722 39.0257-30.594 36.5366-30.594ZM36.5366-14.5562C33.9923-14.5562 31.9212-16.6344 31.9212-19.1787C31.9212-21.7048 33.9923-23.8129 36.5366-23.8129C39.0257-23.8129 41.1339-21.6677 41.1339-19.1787C41.1339-16.6344 39.0627-14.5562 36.5366-14.5562Z"/>
  </g>
  <g id="Medium-M" transform="matrix(1 0 0 1 1687.4 1126)">
   <path d="M59.1344 15.1614C86.7435 15.1614 109.59-7.64127 109.59-35.2504C109.59-62.8595 86.7001-85.6621 59.091-85.6621C31.5167-85.6621 8.72266-62.8595 8.72266-35.2504C8.72266-7.64127 31.5601 15.1614 59.1344 15.1614ZM47.7277-48.2052C45.9586-48.2052 44.4872-49.72 44.4872-51.4994C44.4872-53.2873 45.8615-54.7501 47.7277-54.7501L83.8311-54.7501C85.7059-54.7501 87.1355-53.2959 87.1355-51.4994C87.1355-49.668 85.7059-48.2052 83.8311-48.2052ZM47.7277-15.6466C45.8718-15.6466 44.4872-17.1094 44.4872-18.8973C44.4872-20.6767 45.9586-22.1915 47.7277-22.1915L83.8311-22.1915C85.7059-22.1915 87.1355-20.7287 87.1355-18.8973C87.1355-17.1008 85.7059-15.6466 83.8311-15.6466ZM47.7277-31.9476C45.9586-31.9476 44.4872-33.4104 44.4872-35.1983C44.4872-36.9863 45.9483-38.4491 47.7277-38.4491L83.8311-38.4491C85.7059-38.4491 87.1355-37.0383 87.1355-35.1983C87.1355-33.3584 85.7059-31.9476 83.8311-31.9476ZM35.4935-46.9757C33.0085-46.9757 31.003-49.0246 31.003-51.4994C31.003-53.9844 33.0085-55.9985 35.4935-55.9985C37.9683-55.9985 39.9738-53.9844 39.9738-51.4994C39.9738-49.068 37.9249-46.9757 35.4935-46.9757ZM35.4935-30.7095C33.0085-30.7095 31.003-32.6801 31.003-35.1983C31.003-37.7165 33.0085-39.6872 35.4935-39.6872C37.9249-39.6872 39.9738-37.6731 39.9738-35.1983C39.9738-32.7236 37.9249-30.7095 35.4935-30.7095ZM35.4935-14.3982C33.0085-14.3982 31.003-16.4123 31.003-18.8973C31.003-21.3721 33.0085-23.421 35.4935-23.421C37.9249-23.421 39.9738-21.3287 39.9738-18.8973C39.9738-16.4123 37.9683-14.3982 35.4935-14.3982Z"/>
  </g>
  <g id="Regular-M" transform="matrix(1 0 0 1 1391.32 1126)">
   <path d="M58.4961 14.5128C85.7192 14.5128 108.321-8.0375 108.321-35.2606C108.321-62.4838 85.6675-85.0341 58.4443-85.0341C31.2624-85.0341 8.72266-62.4838 8.72266-35.2606C8.72266-8.0375 31.3141 14.5128 58.4961 14.5128ZM46.2698-48.7677C44.6117-48.7677 43.2229-50.2082 43.2229-51.8663C43.2229-53.535 44.5082-54.9133 46.2698-54.9133L83.933-54.9133C85.7051-54.9133 87.0316-53.5456 87.0316-51.8663C87.0316-50.1459 85.7051-48.7677 83.933-48.7677ZM46.2698-15.4834C44.5082-15.4834 43.2229-16.8617 43.2229-18.5303C43.2229-20.1885 44.6117-21.629 46.2698-21.629L83.933-21.629C85.7051-21.629 87.0316-20.2508 87.0316-18.5303C87.0316-16.8511 85.7051-15.4834 83.933-15.4834ZM46.2698-32.1514C44.6117-32.1514 43.2229-33.5297 43.2229-35.1983C43.2229-36.867 44.6117-38.2453 46.2698-38.2453L83.933-38.2453C85.7051-38.2453 87.0316-36.9293 87.0316-35.1983C87.0316-33.4674 85.7051-32.1514 83.933-32.1514ZM34.133-47.4869C31.7252-47.4869 29.8053-49.4586 29.8053-51.8663C29.8053-54.2741 31.7252-56.2046 34.133-56.2046C36.5407-56.2046 38.4606-54.2741 38.4606-51.8663C38.4606-49.5103 36.489-47.4869 34.133-47.4869ZM34.133-30.8601C31.7252-30.8601 29.8053-32.7388 29.8053-35.1983C29.8053-37.6579 31.7252-39.5366 34.133-39.5366C36.489-39.5366 38.4606-37.6061 38.4606-35.1983C38.4606-32.7906 36.489-30.8601 34.133-30.8601ZM34.133-14.1921C31.7252-14.1921 29.8053-16.1226 29.8053-18.5303C29.8053-20.9381 31.7252-22.9098 34.133-22.9098C36.489-22.9098 38.4606-20.8864 38.4606-18.5303C38.4606-16.1226 36.5407-14.1921 34.133-14.1921Z"/>
  </g>
  <g id="Light-M" transform="matrix(1 0 0 1 1095.44 1126)">
   <path d="M57.6748 13.6915C84.4872 13.6915 106.662-8.44816 106.662-35.2606C106.662-62.0731 84.4526-84.2128 57.6401-84.2128C30.8346-84.2128 8.72266-62.0731 8.72266-35.2606C8.72266-8.44816 30.8693 13.6915 57.6748 13.6915ZM45.0207-49.5548C43.7048-49.5548 42.5898-50.7044 42.5898-52.0203C42.5898-53.3639 43.6355-54.4513 45.0207-54.4513L83.7447-54.4513C85.1576-54.4513 86.2103-53.3916 86.2103-52.0203C86.2103-50.6421 85.1576-49.5548 83.7447-49.5548ZM45.0207-15.9454C43.6355-15.9454 42.5898-17.0328 42.5898-18.3763C42.5898-19.6922 43.7048-20.8419 45.0207-20.8419L83.7447-20.8419C85.1576-20.8419 86.2103-19.7545 86.2103-18.3763C86.2103-17.0051 85.1576-15.9454 83.7447-15.9454ZM45.0207-32.7674C43.7048-32.7674 42.5898-33.8548 42.5898-35.1983C42.5898-36.5419 43.7048-37.6293 45.0207-37.6293L83.7447-37.6293C85.1576-37.6293 86.2103-36.6042 86.2103-35.1983C86.2103-33.7925 85.1576-32.7674 83.7447-32.7674ZM33.1063-47.9147C30.8354-47.9147 29.0353-49.7495 29.0353-52.0203C29.0353-54.2912 30.8354-56.119 33.1063-56.119C35.3772-56.119 37.1773-54.2912 37.1773-52.0203C37.1773-49.7841 35.3425-47.9147 33.1063-47.9147ZM33.1063-31.0997C30.8354-31.0997 29.0353-32.8928 29.0353-35.1983C29.0353-37.5039 30.8354-39.297 33.1063-39.297C35.3425-39.297 37.1773-37.4692 37.1773-35.1983C37.1773-32.9274 35.3425-31.0997 33.1063-31.0997ZM33.1063-14.2777C30.8354-14.2777 29.0353-16.1054 29.0353-18.3763C29.0353-20.6472 30.8354-22.482 33.1063-22.482C35.3425-22.482 37.1773-20.6126 37.1773-18.3763C37.1773-16.1054 35.3772-14.2777 33.1063-14.2777Z"/>
  </g>
  <g id="Thin-M" transform="matrix(1 0 0 1 799.828 1126)">
   <path d="M56.5885 12.6052C82.8578 12.6052 104.466-8.9913 104.466-35.2606C104.466-61.53 82.8458-83.1265 56.5765-83.1265C30.2689-83.1265 8.72266-61.53 8.72266-35.2606C8.72266-8.9913 30.2809 12.6052 56.5885 12.6052ZM43.3687-50.5958C42.5054-50.5958 41.7525-51.3607 41.7525-52.224C41.7525-53.1376 42.4814-53.8402 43.3687-53.8402L83.4958-53.8402C84.4334-53.8402 85.124-53.1879 85.124-52.224C85.124-51.2984 84.4334-50.5958 83.4958-50.5958ZM43.3687-16.5564C42.4814-16.5564 41.7525-17.2591 41.7525-18.1727C41.7525-19.0359 42.5054-19.8009 43.3687-19.8009L83.4958-19.8009C84.4334-19.8009 85.124-19.0983 85.124-18.1727C85.124-17.2088 84.4334-16.5564 83.4958-16.5564ZM43.3687-33.5821C42.5054-33.5821 41.7525-34.2848 41.7525-35.1983C41.7525-36.1119 42.5054-36.8146 43.3687-36.8146L83.4958-36.8146C84.4334-36.8146 85.124-36.1742 85.124-35.1983C85.124-34.2225 84.4334-33.5821 83.4958-33.5821ZM31.7485-48.4805C29.6586-48.4805 28.0169-50.1342 28.0169-52.224C28.0169-54.3139 29.6586-56.0059 31.7485-56.0059C33.8383-56.0059 35.48-54.3139 35.48-52.224C35.48-50.1462 33.8263-48.4805 31.7485-48.4805ZM31.7485-31.4165C29.6586-31.4165 28.0169-33.0965 28.0169-35.1983C28.0169-37.3002 29.6586-38.9802 31.7485-38.9802C33.8263-38.9802 35.48-37.2882 35.48-35.1983C35.48-33.1085 33.8263-31.4165 31.7485-31.4165ZM31.7485-14.3908C29.6586-14.3908 28.0169-16.0828 28.0169-18.1727C28.0169-20.2625 29.6586-21.9162 31.7485-21.9162C33.8263-21.9162 35.48-20.2505 35.48-18.1727C35.48-16.0828 33.8383-14.3908 31.7485-14.3908Z"/>
  </g>
  <g id="Ultralight-M" transform="matrix(1 0 0 1 503.679 1126)">
   <path d="M56.0321 12.0488C82.0233 12.0488 103.342-9.26949 103.342-35.2606C103.342-61.2518 82.0228-82.5701 56.0317-82.5701C29.9791-82.5701 8.72266-61.2518 8.72266-35.2606C8.72266-9.26949 29.9795 12.0488 56.0321 12.0488ZM42.5225-51.129C41.8911-51.129 41.3236-51.6969 41.3236-52.3283C41.3236-53.0217 41.8902-53.5273 42.5225-53.5273L83.3683-53.5273C84.0625-53.5273 84.5677-53.0836 84.5677-52.3283C84.5677-51.6346 84.0625-51.129 83.3683-51.129ZM42.5225-16.8694C41.8902-16.8694 41.3236-17.375 41.3236-18.0683C41.3236-18.6998 41.8911-19.2677 42.5225-19.2677L83.3683-19.2677C84.0625-19.2677 84.5677-18.7621 84.5677-18.0683C84.5677-17.3131 84.0625-16.8694 83.3683-16.8694ZM42.5225-33.9994C41.8911-33.9994 41.3236-34.505 41.3236-35.1983C41.3236-35.8917 41.8911-36.3973 42.5225-36.3973L83.3683-36.3973C84.0625-36.3973 84.5677-35.954 84.5677-35.1983C84.5677-34.4427 84.0625-33.9994 83.3683-33.9994ZM31.053-48.7702C29.0559-48.7702 27.4953-50.3312 27.4953-52.3283C27.4953-54.3255 29.0559-55.9479 31.053-55.9479C33.0501-55.9479 34.6107-54.3255 34.6107-52.3283C34.6107-50.3316 33.0497-48.7702 31.053-48.7702ZM31.053-31.5788C29.0559-31.5788 27.4953-33.2008 27.4953-35.1983C27.4953-37.1959 29.0559-38.8179 31.053-38.8179C33.0497-38.8179 34.6107-37.1955 34.6107-35.1983C34.6107-33.2012 33.0497-31.5788 31.053-31.5788ZM31.053-14.4488C29.0559-14.4488 27.4953-16.0712 27.4953-18.0683C27.4953-20.0655 29.0559-21.6264 31.053-21.6264C33.0497-21.6264 34.6107-20.065 34.6107-18.0683C34.6107-16.0712 33.0501-14.4488 31.053-14.4488Z"/>
  </g>
  <g id="Black-S" transform="matrix(1 0 0 1 2884.57 696)">
   <path d="M48.8281 6.78711C71.9727 6.78711 90.8203-12.0605 90.8203-35.2051C90.8203-58.3496 71.9727-77.1973 48.8281-77.1973C25.6836-77.1973 6.83594-58.3496 6.83594-35.2051C6.83594-12.0605 25.6836 6.78711 48.8281 6.78711ZM43.1152-43.2129C41.3086-43.2129 39.8438-44.6777 39.8438-46.5332C39.8438-48.3887 41.2598-49.8535 43.1152-49.8535L65.2832-49.8535C67.1387-49.8535 68.6523-48.3887 68.6523-46.5332C68.6523-44.6777 67.1387-43.2129 65.2832-43.2129ZM43.1152-20.5566C41.3086-20.5566 39.8438-22.0215 39.8438-23.877C39.8438-25.7324 41.3086-27.1973 43.1152-27.1973L65.2832-27.1973C67.1387-27.1973 68.6523-25.7324 68.6523-23.877C68.6523-22.0215 67.1387-20.5566 65.2832-20.5566ZM43.1152-31.8848C41.3086-31.8848 39.8438-33.3496 39.8438-35.2051C39.8438-37.0605 41.2598-38.5254 43.1152-38.5254L65.2832-38.5254C67.1387-38.5254 68.6523-37.0605 68.6523-35.2051C68.6523-33.3496 67.1387-31.8848 65.2832-31.8848ZM33.1543-42.4316C30.9082-42.4316 29.0039-44.3359 29.0039-46.5332C29.0039-48.7793 30.9082-50.6836 33.1543-50.6836C35.3516-50.6836 37.2559-48.7793 37.2559-46.5332C37.2559-44.3359 35.3516-42.4316 33.1543-42.4316ZM33.1543-31.1035C30.9082-31.1035 29.0039-33.0078 29.0039-35.2051C29.0039-37.4023 30.9082-39.3066 33.1543-39.3066C35.3516-39.3066 37.2559-37.4023 37.2559-35.2051C37.2559-33.0078 35.3516-31.1035 33.1543-31.1035ZM33.1543-19.7266C30.9082-19.7266 29.0039-21.6309 29.0039-23.877C29.0039-26.0742 30.9082-27.9785 33.1543-27.9785C35.3516-27.9785 37.2559-26.0742 37.2559-23.877C37.2559-21.6309 35.3516-19.7266 33.1543-19.7266Z"/>
  </g>
  <g id="Heavy-S" transform="matrix(1 0 0 1 2588.47 696)">
   <path d="M48.2173 6.16479C70.9816 6.16479 89.6102-12.4524 89.6102-35.2166C89.6102-57.9808 70.97-76.598 48.2058-76.598C25.4531-76.598 6.83594-57.9808 6.83594-35.2166C6.83594-12.4524 25.4646 6.16479 48.2173 6.16479ZM41.6401-43.743C39.9141-43.743 38.5069-45.1618 38.5069-46.925C38.5069-48.6883 39.8538-50.0955 41.6401-50.0955L65.4215-50.0955C67.2078-50.0955 68.6408-48.6883 68.6408-46.925C68.6408-45.1502 67.2078-43.743 65.4215-43.743ZM41.6401-20.3146C39.8911-20.3146 38.5069-21.7218 38.5069-23.4851C38.5069-25.2484 39.9141-26.6671 41.6401-26.6671L65.4215-26.6671C67.2078-26.6671 68.6408-25.2599 68.6408-23.4851C68.6408-21.7218 67.2078-20.3146 65.4215-20.3146ZM41.6401-32.0346C39.9141-32.0346 38.5069-33.4418 38.5069-35.2051C38.5069-36.9684 39.8768-38.3756 41.6401-38.3756L65.4215-38.3756C67.2078-38.3756 68.6408-36.9799 68.6408-35.2051C68.6408-33.4303 67.2078-32.0346 65.4215-32.0346ZM31.7598-42.9502C29.5829-42.9502 27.7593-44.7854 27.7593-46.925C27.7593-49.102 29.5829-50.9256 31.7598-50.9256C33.8995-50.9256 35.7231-49.102 35.7231-46.925C35.7231-44.7969 33.888-42.9502 31.7598-42.9502ZM31.7598-31.2418C29.5829-31.2418 27.7593-33.0539 27.7593-35.2051C27.7593-37.3562 29.5829-39.1683 31.7598-39.1683C33.888-39.1683 35.7231-37.3447 35.7231-35.2051C35.7231-33.0654 33.888-31.2418 31.7598-31.2418ZM31.7598-19.4845C29.5829-19.4845 27.7593-21.3082 27.7593-23.4851C27.7593-25.6248 29.5829-27.4599 31.7598-27.4599C33.888-27.4599 35.7231-25.6132 35.7231-23.4851C35.7231-21.3082 33.8995-19.4845 31.7598-19.4845Z"/>
  </g>
  <g id="Bold-S" transform="matrix(1 0 0 1 2292.43 696)">
   <path d="M47.5342 5.46875C69.873 5.46875 88.2568-12.8906 88.2568-35.2295C88.2568-57.5684 69.8486-75.9277 47.5098-75.9277C25.1953-75.9277 6.83594-57.5684 6.83594-35.2295C6.83594-12.8906 25.2197 5.46875 47.5342 5.46875ZM39.9902-44.3359C38.3545-44.3359 37.0117-45.7031 37.0117-47.3633C37.0117-49.0234 38.2812-50.3662 39.9902-50.3662L65.5762-50.3662C67.2852-50.3662 68.6279-49.0234 68.6279-47.3633C68.6279-45.6787 67.2852-44.3359 65.5762-44.3359ZM39.9902-20.0439C38.3057-20.0439 37.0117-21.3867 37.0117-23.0469C37.0117-24.707 38.3545-26.0742 39.9902-26.0742L65.5762-26.0742C67.2852-26.0742 68.6279-24.7314 68.6279-23.0469C68.6279-21.3867 67.2852-20.0439 65.5762-20.0439ZM39.9902-32.2021C38.3545-32.2021 37.0117-33.5449 37.0117-35.2051C37.0117-36.8652 38.3301-38.208 39.9902-38.208L65.5762-38.208C67.2852-38.208 68.6279-36.8896 68.6279-35.2051C68.6279-33.5205 67.2852-32.2021 65.5762-32.2021ZM30.2002-43.5303C28.1006-43.5303 26.3672-45.2881 26.3672-47.3633C26.3672-49.4629 28.1006-51.1963 30.2002-51.1963C32.2754-51.1963 34.0088-49.4629 34.0088-47.3633C34.0088-45.3125 32.251-43.5303 30.2002-43.5303ZM30.2002-31.3965C28.1006-31.3965 26.3672-33.1055 26.3672-35.2051C26.3672-37.3047 28.1006-39.0137 30.2002-39.0137C32.251-39.0137 34.0088-37.2803 34.0088-35.2051C34.0088-33.1299 32.251-31.3965 30.2002-31.3965ZM30.2002-19.2139C28.1006-19.2139 26.3672-20.9473 26.3672-23.0469C26.3672-25.1221 28.1006-26.8799 30.2002-26.8799C32.251-26.8799 34.0088-25.0977 34.0088-23.0469C34.0088-20.9473 32.2754-19.2139 30.2002-19.2139Z"/>
  </g>
  <g id="Semibold-S" transform="matrix(1 0 0 1 1996.19 696)">
   <path d="M47.0632 4.98887C69.1088 4.98887 87.3237-13.1928 87.3237-35.2384C87.3237-57.284 69.0755-75.4656 47.0299-75.4656C25.0176-75.4656 6.83594-57.284 6.83594-35.2384C6.83594-13.1928 25.0509 4.98887 47.0632 4.98887ZM38.8527-44.7447C37.2792-44.7447 35.9809-46.0764 35.9809-47.6654C35.9809-49.2545 37.1971-50.5528 38.8527-50.5528L65.6828-50.5528C67.3385-50.5528 68.619-49.2545 68.619-47.6654C68.619-46.0431 67.3385-44.7447 65.6828-44.7447ZM38.8527-19.8573C37.2126-19.8573 35.9809-21.1557 35.9809-22.7447C35.9809-24.3338 37.2792-25.6654 38.8527-25.6654L65.6828-25.6654C67.3385-25.6654 68.619-24.3671 68.619-22.7447C68.619-21.1557 67.3385-19.8573 65.6828-19.8573ZM38.8527-32.3177C37.2792-32.3177 35.9809-33.616 35.9809-35.2051C35.9809-36.7941 37.2637-38.0925 38.8527-38.0925L65.6828-38.0925C67.3385-38.0925 68.619-36.8274 68.619-35.2051C68.619-33.5827 67.3385-32.3177 65.6828-32.3177ZM29.1249-43.9302C27.0786-43.9302 25.4074-45.6347 25.4074-47.6654C25.4074-49.7117 27.0786-51.3829 29.1249-51.3829C31.1557-51.3829 32.8269-49.7117 32.8269-47.6654C32.8269-45.668 31.1224-43.9302 29.1249-43.9302ZM29.1249-31.5031C27.0786-31.5031 25.4074-33.141 25.4074-35.2051C25.4074-37.2691 27.0786-38.907 29.1249-38.907C31.1224-38.907 32.8269-37.2358 32.8269-35.2051C32.8269-33.1743 31.1224-31.5031 29.1249-31.5031ZM29.1249-19.0272C27.0786-19.0272 25.4074-20.6984 25.4074-22.7447C25.4074-24.7755 27.0786-26.48 29.1249-26.48C31.1224-26.48 32.8269-24.7422 32.8269-22.7447C32.8269-20.6984 31.1557-19.0272 29.1249-19.0272Z"/>
  </g>
  <g id="Medium-S" transform="matrix(1 0 0 1 1699.83 696)">
   <path d="M46.7061 4.625C68.5293 4.625 86.6162-13.4219 86.6162-35.2451C86.6162-57.0684 68.4893-75.1152 46.666-75.1152C24.8828-75.1152 6.83594-57.0684 6.83594-35.2451C6.83594-13.4219 24.9229 4.625 46.7061 4.625ZM37.9902-45.0547C36.4639-45.0547 35.1992-46.3594 35.1992-47.8945C35.1992-49.4297 36.375-50.6943 37.9902-50.6943L65.7637-50.6943C67.3789-50.6943 68.6123-49.4297 68.6123-47.8945C68.6123-46.3193 67.3789-45.0547 65.7637-45.0547ZM37.9902-19.7158C36.3838-19.7158 35.1992-20.9805 35.1992-22.5156C35.1992-24.0508 36.4639-25.3555 37.9902-25.3555L65.7637-25.3555C67.3789-25.3555 68.6123-24.0908 68.6123-22.5156C68.6123-20.9805 67.3789-19.7158 65.7637-19.7158ZM37.9902-32.4053C36.4639-32.4053 35.1992-33.6699 35.1992-35.2051C35.1992-36.7402 36.4551-38.0049 37.9902-38.0049L65.7637-38.0049C67.3789-38.0049 68.6123-36.7803 68.6123-35.2051C68.6123-33.6299 67.3789-32.4053 65.7637-32.4053ZM28.3096-44.2334C26.3037-44.2334 24.6797-45.8975 24.6797-47.8945C24.6797-49.9004 26.3037-51.5244 28.3096-51.5244C30.3066-51.5244 31.9307-49.9004 31.9307-47.8945C31.9307-45.9375 30.2666-44.2334 28.3096-44.2334ZM28.3096-31.584C26.3037-31.584 24.6797-33.168 24.6797-35.2051C24.6797-37.2422 26.3037-38.8262 28.3096-38.8262C30.2666-38.8262 31.9307-37.2021 31.9307-35.2051C31.9307-33.208 30.2666-31.584 28.3096-31.584ZM28.3096-18.8857C26.3037-18.8857 24.6797-20.5098 24.6797-22.5156C24.6797-24.5127 26.3037-26.1768 28.3096-26.1768C30.2666-26.1768 31.9307-24.4727 31.9307-22.5156C31.9307-20.5098 30.3066-18.8857 28.3096-18.8857Z"/>
  </g>
  <g id="Regular-S" transform="matrix(1 0 0 1 1403.58 696)">
   <path d="M46.2402 4.15039C67.7734 4.15039 85.6934-13.7207 85.6934-35.2539C85.6934-56.7871 67.7246-74.6582 46.1914-74.6582C24.707-74.6582 6.83594-56.7871 6.83594-35.2539C6.83594-13.7207 24.7559 4.15039 46.2402 4.15039ZM36.8652-45.459C35.4004-45.459 34.1797-46.7285 34.1797-48.1934C34.1797-49.6582 35.3027-50.8789 36.8652-50.8789L65.8691-50.8789C67.4316-50.8789 68.6035-49.6582 68.6035-48.1934C68.6035-46.6797 67.4316-45.459 65.8691-45.459ZM36.8652-19.5312C35.3027-19.5312 34.1797-20.752 34.1797-22.2168C34.1797-23.6816 35.4004-24.9512 36.8652-24.9512L65.8691-24.9512C67.4316-24.9512 68.6035-23.7305 68.6035-22.2168C68.6035-20.752 67.4316-19.5312 65.8691-19.5312ZM36.8652-32.5195C35.4004-32.5195 34.1797-33.7402 34.1797-35.2051C34.1797-36.6699 35.4004-37.8906 36.8652-37.8906L65.8691-37.8906C67.4316-37.8906 68.6035-36.7188 68.6035-35.2051C68.6035-33.6914 67.4316-32.5195 65.8691-32.5195ZM27.2461-44.6289C25.293-44.6289 23.7305-46.2402 23.7305-48.1934C23.7305-50.1465 25.293-51.709 27.2461-51.709C29.1992-51.709 30.7617-50.1465 30.7617-48.1934C30.7617-46.2891 29.1504-44.6289 27.2461-44.6289ZM27.2461-31.6895C25.293-31.6895 23.7305-33.2031 23.7305-35.2051C23.7305-37.207 25.293-38.7207 27.2461-38.7207C29.1504-38.7207 30.7617-37.1582 30.7617-35.2051C30.7617-33.252 29.1504-31.6895 27.2461-31.6895ZM27.2461-18.7012C25.293-18.7012 23.7305-20.2637 23.7305-22.2168C23.7305-24.1699 25.293-25.7812 27.2461-25.7812C29.1504-25.7812 30.7617-24.1211 30.7617-22.2168C30.7617-20.2637 29.1992-18.7012 27.2461-18.7012Z"/>
  </g>
  <g id="Light-S" transform="matrix(1 0 0 1 1107.6 696)">
   <path d="M45.5137 3.42383C66.6836 3.42383 84.2251-14.084 84.2251-35.2539C84.2251-56.4238 66.6499-73.9316 45.48-73.9316C24.3286-73.9316 6.83594-56.4238 6.83594-35.2539C6.83594-14.084 24.3623 3.42383 45.5137 3.42383ZM35.7603-46.1553C34.5982-46.1553 33.6196-47.1675 33.6196-48.3296C33.6196-49.5068 34.5308-50.4702 35.7603-50.4702L65.7026-50.4702C66.9473-50.4702 67.877-49.522 67.877-48.3296C67.877-47.1186 66.9473-46.1553 65.7026-46.1553ZM35.7603-19.9399C34.5308-19.9399 33.6196-20.9033 33.6196-22.0806C33.6196-23.2427 34.5982-24.2549 35.7603-24.2549L65.7026-24.2549C66.9473-24.2549 67.877-23.2915 67.877-22.0806C67.877-20.8882 66.9473-19.9399 65.7026-19.9399ZM35.7603-33.0644C34.5982-33.0644 33.6196-34.0278 33.6196-35.2051C33.6196-36.3823 34.5982-37.3457 35.7603-37.3457L65.7026-37.3457C66.9473-37.3457 67.877-36.4312 67.877-35.2051C67.877-33.979 66.9473-33.0644 65.7026-33.0644ZM26.3379-45.0073C24.5059-45.0073 23.0493-46.4976 23.0493-48.3296C23.0493-50.1616 24.5059-51.6333 26.3379-51.6333C28.1699-51.6333 29.6265-50.1616 29.6265-48.3296C29.6265-46.5312 28.1362-45.0073 26.3379-45.0073ZM26.3379-31.9014C24.5059-31.9014 23.0493-33.3394 23.0493-35.2051C23.0493-37.0708 24.5059-38.5088 26.3379-38.5088C28.1362-38.5088 29.6265-37.0371 29.6265-35.2051C29.6265-33.373 28.1362-31.9014 26.3379-31.9014ZM26.3379-18.7769C24.5059-18.7769 23.0493-20.2485 23.0493-22.0806C23.0493-23.9126 24.5059-25.4028 26.3379-25.4028C28.1362-25.4028 29.6265-23.8789 29.6265-22.0806C29.6265-20.2485 28.1699-18.7769 26.3379-18.7769Z"/>
  </g>
  <g id="Thin-S" transform="matrix(1 0 0 1 811.863 696)">
   <path d="M44.5527 2.4629C65.2422 2.4629 82.2832-14.5644 82.2832-35.2539C82.2832-55.9434 65.2285-72.9707 44.5391-72.9707C23.8281-72.9707 6.83594-55.9434 6.83594-35.2539C6.83594-14.5644 23.8418 2.4629 44.5527 2.4629ZM34.2988-47.0762C33.5371-47.0762 32.8789-47.748 32.8789-48.5098C32.8789-49.3066 33.5098-49.9297 34.2988-49.9297L65.4824-49.9297C66.3066-49.9297 66.916-49.3418 66.916-48.5098C66.916-47.6992 66.3066-47.0762 65.4824-47.0762ZM34.2988-20.4805C33.5098-20.4805 32.8789-21.1035 32.8789-21.9004C32.8789-22.6621 33.5371-23.334 34.2988-23.334L65.4824-23.334C66.3066-23.334 66.916-22.7109 66.916-21.9004C66.916-21.0684 66.3066-20.4805 65.4824-20.4805ZM34.2988-33.7851C33.5371-33.7851 32.8789-34.4082 32.8789-35.2051C32.8789-36.002 33.5371-36.625 34.2988-36.625L65.4824-36.625C66.3066-36.625 66.916-36.0508 66.916-35.2051C66.916-34.3594 66.3066-33.7851 65.4824-33.7851ZM25.1367-45.5078C23.4649-45.5078 22.1484-46.8379 22.1484-48.5098C22.1484-50.1816 23.4649-51.5332 25.1367-51.5332C26.8086-51.5332 28.125-50.1816 28.125-48.5098C28.125-46.8516 26.7949-45.5078 25.1367-45.5078ZM25.1367-32.1816C23.4649-32.1816 22.1484-33.5195 22.1484-35.2051C22.1484-36.8906 23.4649-38.2285 25.1367-38.2285C26.7949-38.2285 28.125-36.877 28.125-35.2051C28.125-33.5332 26.7949-32.1816 25.1367-32.1816ZM25.1367-18.877C23.4649-18.877 22.1484-20.2285 22.1484-21.9004C22.1484-23.5723 23.4649-24.9024 25.1367-24.9024C26.7949-24.9024 28.125-23.5586 28.125-21.9004C28.125-20.2285 26.8086-18.877 25.1367-18.877Z"/>
  </g>
  <g id="Ultralight-S" transform="matrix(1 0 0 1 515.649 696)">
   <path d="M44.0606 1.97072C64.5039 1.97072 81.2886-14.8105 81.2886-35.2539C81.2886-55.6973 64.5005-72.4785 44.0571-72.4785C23.5718-72.4785 6.83594-55.6973 6.83594-35.2539C6.83594-14.8105 23.5752 1.97072 44.0606 1.97072ZM33.5503-47.5478C32.9937-47.5478 32.4995-48.0454 32.4995-48.602C32.4995-49.2041 32.9868-49.6528 33.5503-49.6528L65.3696-49.6528C65.9785-49.6528 66.4238-49.2495 66.4238-48.602C66.4238-47.9966 65.9785-47.5478 65.3696-47.5478ZM33.5503-20.7573C32.9868-20.7573 32.4995-21.2061 32.4995-21.8081C32.4995-22.3648 32.9937-22.8623 33.5503-22.8623L65.3696-22.8623C65.9785-22.8623 66.4238-22.4136 66.4238-21.8081C66.4238-21.1606 65.9785-20.7573 65.3696-20.7573ZM33.5503-34.1543C32.9937-34.1543 32.4995-34.603 32.4995-35.2051C32.4995-35.8071 32.9937-36.2559 33.5503-36.2559L65.3696-36.2559C65.9785-36.2559 66.4238-35.856 66.4238-35.2051C66.4238-34.5542 65.9785-34.1543 65.3696-34.1543ZM24.5215-45.7642C22.9317-45.7642 21.687-47.0122 21.687-48.602C21.687-50.1919 22.9317-51.4819 24.5215-51.4819C26.1114-51.4819 27.356-50.1919 27.356-48.602C27.356-47.0156 26.1079-45.7642 24.5215-45.7642ZM24.5215-32.3252C22.9317-32.3252 21.687-33.6118 21.687-35.2051C21.687-36.7983 22.9317-38.085 24.5215-38.085C26.1079-38.085 27.356-36.7949 27.356-35.2051C27.356-33.6152 26.1079-32.3252 24.5215-32.3252ZM24.5215-18.9282C22.9317-18.9282 21.687-20.2183 21.687-21.8081C21.687-23.398 22.9317-24.646 24.5215-24.646C26.1079-24.646 27.356-23.3945 27.356-21.8081C27.356-20.2183 26.1114-18.9282 24.5215-18.9282Z"/>
  </g>
 </g>
</svg>
